<mxfile host="app.diagrams.net" modified="2023-03-14T02:18:44.933Z" agent="5.0 (Windows NT 10.0; Win64; x64) AppleWebKit/537.36 (KHTML, like Gecko) Chrome/103.0.0.0 Safari/537.36" etag="9SUpNV-2GuV0HBEVwnEx" version="21.0.6" type="github">
  <diagram name="第 1 页" id="WiTagBOTv5Obc7UUUAwQ">
    <mxGraphModel dx="1816" dy="549" grid="1" gridSize="10" guides="1" tooltips="1" connect="1" arrows="1" fold="1" page="1" pageScale="1" pageWidth="827" pageHeight="1169" math="0" shadow="0">
      <root>
        <mxCell id="0" />
        <mxCell id="1" parent="0" />
        <mxCell id="cPGGd7SGVUYD-8CJLFrh-1" value="09:00 -&amp;gt; 09:30" style="rounded=0;whiteSpace=wrap;html=1;fillColor=#d5e8d4;strokeColor=#82b366;" parent="1" vertex="1">
          <mxGeometry x="120" y="80" width="140" height="30" as="geometry" />
        </mxCell>
        <mxCell id="cPGGd7SGVUYD-8CJLFrh-14" value="09:10 -&amp;gt; 09:40" style="rounded=0;whiteSpace=wrap;html=1;fillColor=#f8cecc;strokeColor=#b85450;" parent="1" vertex="1">
          <mxGeometry x="120" y="120" width="140" height="30" as="geometry" />
        </mxCell>
        <mxCell id="cPGGd7SGVUYD-8CJLFrh-15" value="09:20 -&amp;gt; 09:50" style="rounded=0;whiteSpace=wrap;html=1;fillColor=#b1ddf0;strokeColor=#10739e;" parent="1" vertex="1">
          <mxGeometry x="120" y="160" width="140" height="30" as="geometry" />
        </mxCell>
        <mxCell id="cPGGd7SGVUYD-8CJLFrh-16" value="09:30 -&amp;gt; 10:00" style="rounded=0;whiteSpace=wrap;html=1;fillColor=#ffe6cc;strokeColor=#d79b00;" parent="1" vertex="1">
          <mxGeometry x="120" y="200" width="140" height="30" as="geometry" />
        </mxCell>
        <mxCell id="cPGGd7SGVUYD-8CJLFrh-17" value="09:40 -&amp;gt; 10:10" style="rounded=0;whiteSpace=wrap;html=1;fillColor=#e1d5e7;strokeColor=#9673a6;" parent="1" vertex="1">
          <mxGeometry x="120" y="240" width="140" height="30" as="geometry" />
        </mxCell>
        <mxCell id="cPGGd7SGVUYD-8CJLFrh-18" value="09:50 -&amp;gt; 10:20" style="rounded=0;whiteSpace=wrap;html=1;fillColor=#dae8fc;strokeColor=#6c8ebf;" parent="1" vertex="1">
          <mxGeometry x="120" y="280" width="140" height="30" as="geometry" />
        </mxCell>
        <mxCell id="cPGGd7SGVUYD-8CJLFrh-19" value="10:00 -&amp;gt; 10:30" style="rounded=0;whiteSpace=wrap;html=1;fillColor=#d5e8d4;strokeColor=#82b366;" parent="1" vertex="1">
          <mxGeometry x="120" y="320" width="140" height="30" as="geometry" />
        </mxCell>
        <mxCell id="cPGGd7SGVUYD-8CJLFrh-20" value="10:10 -&amp;gt; 10:40" style="rounded=0;whiteSpace=wrap;html=1;fillColor=#f8cecc;strokeColor=#b85450;" parent="1" vertex="1">
          <mxGeometry x="120" y="360" width="140" height="30" as="geometry" />
        </mxCell>
        <mxCell id="cPGGd7SGVUYD-8CJLFrh-21" value="运营时长 20 min , 停场时间 10 min ,发车间隔 10 min" style="text;html=1;align=center;verticalAlign=middle;resizable=0;points=[];autosize=1;strokeColor=none;fillColor=none;" parent="1" vertex="1">
          <mxGeometry x="55" width="300" height="30" as="geometry" />
        </mxCell>
        <mxCell id="cPGGd7SGVUYD-8CJLFrh-22" value="上行" style="text;html=1;align=center;verticalAlign=middle;resizable=0;points=[];autosize=1;strokeColor=none;fillColor=none;" parent="1" vertex="1">
          <mxGeometry x="165" y="20" width="50" height="30" as="geometry" />
        </mxCell>
        <mxCell id="cPGGd7SGVUYD-8CJLFrh-23" value="发车时间" style="text;html=1;align=center;verticalAlign=middle;resizable=0;points=[];autosize=1;strokeColor=none;fillColor=none;" parent="1" vertex="1">
          <mxGeometry x="120" y="50" width="70" height="30" as="geometry" />
        </mxCell>
        <mxCell id="cPGGd7SGVUYD-8CJLFrh-24" value="下次发车时间" style="text;html=1;align=center;verticalAlign=middle;resizable=0;points=[];autosize=1;strokeColor=none;fillColor=none;" parent="1" vertex="1">
          <mxGeometry x="180" y="50" width="100" height="30" as="geometry" />
        </mxCell>
        <mxCell id="cPGGd7SGVUYD-8CJLFrh-53" value="" style="html=1;shadow=0;dashed=0;align=center;verticalAlign=middle;shape=mxgraph.arrows2.arrow;dy=0.66;dx=12.92;notch=0;rotation=25;fillColor=#f8cecc;strokeColor=#b85450;" parent="1" vertex="1">
          <mxGeometry x="259.34" y="192.96" width="260" height="10" as="geometry" />
        </mxCell>
        <mxCell id="cPGGd7SGVUYD-8CJLFrh-62" value="新班次" style="text;html=1;align=center;verticalAlign=middle;resizable=0;points=[];autosize=1;strokeColor=none;fillColor=none;fontColor=#000000;" parent="1" vertex="1">
          <mxGeometry x="-10" y="120" width="60" height="30" as="geometry" />
        </mxCell>
        <mxCell id="0OCsSbj0izXZ-WNtlttm-5" value="10:20 -&amp;gt; 10:50" style="rounded=0;whiteSpace=wrap;html=1;fillColor=#b1ddf0;strokeColor=#10739e;" parent="1" vertex="1">
          <mxGeometry x="120" y="400" width="140" height="30" as="geometry" />
        </mxCell>
        <mxCell id="0OCsSbj0izXZ-WNtlttm-6" value="10:30 -&amp;gt; 11:00" style="rounded=0;whiteSpace=wrap;html=1;fillColor=#ffe6cc;strokeColor=#d79b00;" parent="1" vertex="1">
          <mxGeometry x="120" y="440" width="140" height="30" as="geometry" />
        </mxCell>
        <mxCell id="0OCsSbj0izXZ-WNtlttm-12" value="运营时长 30 min , 停场时间 10 min ,发车间隔 10 min" style="text;html=1;align=center;verticalAlign=middle;resizable=0;points=[];autosize=1;strokeColor=none;fillColor=none;" parent="1" vertex="1">
          <mxGeometry x="460" width="300" height="30" as="geometry" />
        </mxCell>
        <mxCell id="0OCsSbj0izXZ-WNtlttm-26" value="" style="html=1;shadow=0;dashed=0;align=center;verticalAlign=middle;shape=mxgraph.arrows2.arrow;dy=0.66;dx=12.92;notch=0;rotation=-205;fillColor=#ffe6cc;strokeColor=#d79b00;" parent="1" vertex="1">
          <mxGeometry x="254.2" y="151.85" width="266" height="10" as="geometry" />
        </mxCell>
        <mxCell id="0OCsSbj0izXZ-WNtlttm-27" value="" style="html=1;shadow=0;dashed=0;align=center;verticalAlign=middle;shape=mxgraph.arrows2.arrow;dy=0.66;dx=12.92;notch=0;rotation=25;fillColor=#d5e8d4;strokeColor=#82b366;" parent="1" vertex="1">
          <mxGeometry x="260.2" y="150" width="260" height="10" as="geometry" />
        </mxCell>
        <mxCell id="0OCsSbj0izXZ-WNtlttm-29" value="1" style="ellipse;whiteSpace=wrap;html=1;aspect=fixed;fillColor=#d5e8d4;strokeColor=#82b366;" parent="1" vertex="1">
          <mxGeometry x="80" y="85" width="20" height="20" as="geometry" />
        </mxCell>
        <mxCell id="0OCsSbj0izXZ-WNtlttm-30" value="3" style="ellipse;whiteSpace=wrap;html=1;aspect=fixed;fillColor=#f8cecc;strokeColor=#b85450;" parent="1" vertex="1">
          <mxGeometry x="80" y="125" width="20" height="20" as="geometry" />
        </mxCell>
        <mxCell id="0OCsSbj0izXZ-WNtlttm-37" value="1" style="ellipse;whiteSpace=wrap;html=1;aspect=fixed;fillColor=#d5e8d4;strokeColor=#82b366;" parent="1" vertex="1">
          <mxGeometry x="80" y="325" width="20" height="20" as="geometry" />
        </mxCell>
        <mxCell id="0OCsSbj0izXZ-WNtlttm-38" value="3" style="ellipse;whiteSpace=wrap;html=1;aspect=fixed;fillColor=#f8cecc;strokeColor=#b85450;" parent="1" vertex="1">
          <mxGeometry x="80" y="365" width="20" height="20" as="geometry" />
        </mxCell>
        <mxCell id="0OCsSbj0izXZ-WNtlttm-40" value="2" style="ellipse;whiteSpace=wrap;html=1;aspect=fixed;fillColor=#ffe6cc;strokeColor=#d79b00;" parent="1" vertex="1">
          <mxGeometry x="80" y="445" width="20" height="20" as="geometry" />
        </mxCell>
        <mxCell id="0OCsSbj0izXZ-WNtlttm-41" value="" style="shape=singleArrow;whiteSpace=wrap;html=1;rotation=-180;fillColor=#f5f5f5;fontColor=#333333;strokeColor=#666666;" parent="1" vertex="1">
          <mxGeometry x="290" y="80" width="40" height="20" as="geometry" />
        </mxCell>
        <mxCell id="0OCsSbj0izXZ-WNtlttm-42" value="迭代指针index，&lt;br&gt;指向上下行队列中，&lt;br&gt;发车时间较小的时刻" style="text;html=1;align=left;verticalAlign=middle;resizable=0;points=[];autosize=1;strokeColor=none;fillColor=none;" parent="1" vertex="1">
          <mxGeometry x="330" y="60" width="130" height="60" as="geometry" />
        </mxCell>
        <mxCell id="0OCsSbj0izXZ-WNtlttm-45" value="5" style="ellipse;whiteSpace=wrap;html=1;aspect=fixed;fillColor=#b1ddf0;strokeColor=#10739e;" parent="1" vertex="1">
          <mxGeometry x="80" y="165" width="20" height="20" as="geometry" />
        </mxCell>
        <mxCell id="0OCsSbj0izXZ-WNtlttm-47" value="5" style="ellipse;whiteSpace=wrap;html=1;aspect=fixed;fillColor=#b1ddf0;strokeColor=#10739e;" parent="1" vertex="1">
          <mxGeometry x="80" y="405" width="20" height="20" as="geometry" />
        </mxCell>
        <mxCell id="0OCsSbj0izXZ-WNtlttm-48" value="班次" style="text;html=1;align=center;verticalAlign=middle;resizable=0;points=[];autosize=1;strokeColor=none;fillColor=none;" parent="1" vertex="1">
          <mxGeometry x="65" y="40" width="50" height="30" as="geometry" />
        </mxCell>
        <mxCell id="0OCsSbj0izXZ-WNtlttm-51" value="" style="html=1;shadow=0;dashed=0;align=center;verticalAlign=middle;shape=mxgraph.arrows2.arrow;dy=0.66;dx=12.92;notch=0;rotation=25;fillColor=#b1ddf0;strokeColor=#10739e;" parent="1" vertex="1">
          <mxGeometry x="259.33" y="233" width="260.19" height="10" as="geometry" />
        </mxCell>
        <mxCell id="kCvQ4fmgIMMC7hbJdR_D-9" value="下行" style="text;html=1;align=center;verticalAlign=middle;resizable=0;points=[];autosize=1;strokeColor=none;fillColor=none;" parent="1" vertex="1">
          <mxGeometry x="570" y="20" width="50" height="30" as="geometry" />
        </mxCell>
        <mxCell id="kCvQ4fmgIMMC7hbJdR_D-10" value="发车时间" style="text;html=1;align=center;verticalAlign=middle;resizable=0;points=[];autosize=1;strokeColor=none;fillColor=none;" parent="1" vertex="1">
          <mxGeometry x="520" y="50" width="70" height="30" as="geometry" />
        </mxCell>
        <mxCell id="kCvQ4fmgIMMC7hbJdR_D-13" value="1" style="ellipse;whiteSpace=wrap;html=1;aspect=fixed;fillColor=#d5e8d4;strokeColor=#82b366;" parent="1" vertex="1">
          <mxGeometry x="669" y="205" width="20" height="20" as="geometry" />
        </mxCell>
        <mxCell id="kCvQ4fmgIMMC7hbJdR_D-14" value="2" style="ellipse;whiteSpace=wrap;html=1;aspect=fixed;fillColor=#ffe6cc;strokeColor=#d79b00;" parent="1" vertex="1">
          <mxGeometry x="669" y="85" width="20" height="20" as="geometry" />
        </mxCell>
        <mxCell id="kCvQ4fmgIMMC7hbJdR_D-15" value="2" style="ellipse;whiteSpace=wrap;html=1;aspect=fixed;fillColor=#ffe6cc;strokeColor=#d79b00;" parent="1" vertex="1">
          <mxGeometry x="669" y="325" width="20" height="20" as="geometry" />
        </mxCell>
        <mxCell id="kCvQ4fmgIMMC7hbJdR_D-16" value="4" style="ellipse;whiteSpace=wrap;html=1;aspect=fixed;fillColor=#e1d5e7;strokeColor=#9673a6;" parent="1" vertex="1">
          <mxGeometry x="669" y="365" width="20" height="20" as="geometry" />
        </mxCell>
        <mxCell id="kCvQ4fmgIMMC7hbJdR_D-17" value="1" style="ellipse;whiteSpace=wrap;html=1;aspect=fixed;fillColor=#d5e8d4;strokeColor=#82b366;" parent="1" vertex="1">
          <mxGeometry x="669" y="445" width="20" height="20" as="geometry" />
        </mxCell>
        <mxCell id="kCvQ4fmgIMMC7hbJdR_D-18" value="6" style="ellipse;whiteSpace=wrap;html=1;aspect=fixed;fillColor=#dae8fc;strokeColor=#6c8ebf;" parent="1" vertex="1">
          <mxGeometry x="669" y="165" width="20" height="20" as="geometry" />
        </mxCell>
        <mxCell id="kCvQ4fmgIMMC7hbJdR_D-19" value="6" style="ellipse;whiteSpace=wrap;html=1;aspect=fixed;fillColor=#dae8fc;strokeColor=#6c8ebf;" parent="1" vertex="1">
          <mxGeometry x="669" y="405" width="20" height="20" as="geometry" />
        </mxCell>
        <mxCell id="kCvQ4fmgIMMC7hbJdR_D-20" value="班次" style="text;html=1;align=center;verticalAlign=middle;resizable=0;points=[];autosize=1;strokeColor=none;fillColor=none;" parent="1" vertex="1">
          <mxGeometry x="660" y="50" width="50" height="30" as="geometry" />
        </mxCell>
        <mxCell id="kCvQ4fmgIMMC7hbJdR_D-21" value="下次发车时间" style="text;html=1;align=center;verticalAlign=middle;resizable=0;points=[];autosize=1;strokeColor=none;fillColor=none;" parent="1" vertex="1">
          <mxGeometry x="580" y="50" width="100" height="30" as="geometry" />
        </mxCell>
        <mxCell id="kCvQ4fmgIMMC7hbJdR_D-24" value="09:00 -&amp;gt; 09:30" style="rounded=0;whiteSpace=wrap;html=1;fillColor=#ffe6cc;strokeColor=#d79b00;" parent="1" vertex="1">
          <mxGeometry x="520" y="80" width="140" height="30" as="geometry" />
        </mxCell>
        <mxCell id="kCvQ4fmgIMMC7hbJdR_D-25" value="09:10 -&amp;gt; 09:40" style="rounded=0;whiteSpace=wrap;html=1;fillColor=#e1d5e7;strokeColor=#9673a6;" parent="1" vertex="1">
          <mxGeometry x="520" y="120" width="140" height="30" as="geometry" />
        </mxCell>
        <mxCell id="kCvQ4fmgIMMC7hbJdR_D-26" value="09:20 -&amp;gt; 09:50" style="rounded=0;whiteSpace=wrap;html=1;fillColor=#dae8fc;strokeColor=#6c8ebf;" parent="1" vertex="1">
          <mxGeometry x="520" y="160" width="140" height="30" as="geometry" />
        </mxCell>
        <mxCell id="kCvQ4fmgIMMC7hbJdR_D-27" value="09:30 -&amp;gt; 10:00" style="rounded=0;whiteSpace=wrap;html=1;fillColor=#d5e8d4;strokeColor=#82b366;" parent="1" vertex="1">
          <mxGeometry x="520" y="200" width="140" height="30" as="geometry" />
        </mxCell>
        <mxCell id="kCvQ4fmgIMMC7hbJdR_D-28" value="09:40 -&amp;gt; 10:10" style="rounded=0;whiteSpace=wrap;html=1;fillColor=#f8cecc;strokeColor=#b85450;" parent="1" vertex="1">
          <mxGeometry x="520" y="240" width="140" height="30" as="geometry" />
        </mxCell>
        <mxCell id="kCvQ4fmgIMMC7hbJdR_D-29" value="09:50 -&amp;gt; 10:20" style="rounded=0;whiteSpace=wrap;html=1;fillColor=#b1ddf0;strokeColor=#10739e;" parent="1" vertex="1">
          <mxGeometry x="520" y="280" width="140" height="30" as="geometry" />
        </mxCell>
        <mxCell id="kCvQ4fmgIMMC7hbJdR_D-30" value="10:00 -&amp;gt; 10:30" style="rounded=0;whiteSpace=wrap;html=1;fillColor=#ffe6cc;strokeColor=#d79b00;" parent="1" vertex="1">
          <mxGeometry x="520" y="320" width="140" height="30" as="geometry" />
        </mxCell>
        <mxCell id="kCvQ4fmgIMMC7hbJdR_D-31" value="10:10 -&amp;gt; 10:40" style="rounded=0;whiteSpace=wrap;html=1;fillColor=#e1d5e7;strokeColor=#9673a6;" parent="1" vertex="1">
          <mxGeometry x="520" y="360" width="140" height="30" as="geometry" />
        </mxCell>
        <mxCell id="kCvQ4fmgIMMC7hbJdR_D-32" value="10:20 -&amp;gt; 10:50" style="rounded=0;whiteSpace=wrap;html=1;fillColor=#dae8fc;strokeColor=#6c8ebf;" parent="1" vertex="1">
          <mxGeometry x="520" y="400" width="140" height="30" as="geometry" />
        </mxCell>
        <mxCell id="kCvQ4fmgIMMC7hbJdR_D-33" value="10:30 -&amp;gt; 11:00" style="rounded=0;whiteSpace=wrap;html=1;fillColor=#d5e8d4;strokeColor=#82b366;" parent="1" vertex="1">
          <mxGeometry x="520" y="440" width="140" height="30" as="geometry" />
        </mxCell>
        <mxCell id="kCvQ4fmgIMMC7hbJdR_D-35" value="" style="html=1;shadow=0;dashed=0;align=center;verticalAlign=middle;shape=mxgraph.arrows2.arrow;dy=0.66;dx=12.92;notch=0;rotation=-205;fillColor=#f8cecc;strokeColor=#b85450;" parent="1" vertex="1">
          <mxGeometry x="254.2" y="310" width="266" height="10" as="geometry" />
        </mxCell>
        <mxCell id="kCvQ4fmgIMMC7hbJdR_D-36" value="" style="html=1;shadow=0;dashed=0;align=center;verticalAlign=middle;shape=mxgraph.arrows2.arrow;dy=0.66;dx=12.92;notch=0;rotation=-205;fillColor=#dae8fc;strokeColor=#6c8ebf;" parent="1" vertex="1">
          <mxGeometry x="254.2" y="230" width="266" height="10" as="geometry" />
        </mxCell>
        <mxCell id="kCvQ4fmgIMMC7hbJdR_D-37" value="" style="html=1;shadow=0;dashed=0;align=center;verticalAlign=middle;shape=mxgraph.arrows2.arrow;dy=0.66;dx=12.92;notch=0;rotation=-205;fillColor=#d5e8d4;strokeColor=#82b366;" parent="1" vertex="1">
          <mxGeometry x="254" y="270" width="266" height="10" as="geometry" />
        </mxCell>
        <mxCell id="kCvQ4fmgIMMC7hbJdR_D-38" value="" style="html=1;shadow=0;dashed=0;align=center;verticalAlign=middle;shape=mxgraph.arrows2.arrow;dy=0.66;dx=12.92;notch=0;rotation=-205;fillColor=#e1d5e7;strokeColor=#9673a6;" parent="1" vertex="1">
          <mxGeometry x="256.09" y="190" width="266" height="10" as="geometry" />
        </mxCell>
        <mxCell id="kCvQ4fmgIMMC7hbJdR_D-39" value="" style="html=1;shadow=0;dashed=0;align=center;verticalAlign=middle;shape=mxgraph.arrows2.arrow;dy=0.66;dx=12.92;notch=0;rotation=-205;fillColor=#b1ddf0;strokeColor=#10739e;" parent="1" vertex="1">
          <mxGeometry x="257.11" y="357.86" width="259.53" height="10" as="geometry" />
        </mxCell>
        <mxCell id="kCvQ4fmgIMMC7hbJdR_D-44" value="" style="html=1;shadow=0;dashed=0;align=center;verticalAlign=middle;shape=mxgraph.arrows2.arrow;dy=0.66;dx=12.92;notch=0;rotation=-205;fillColor=#ffe6cc;strokeColor=#d79b00;" parent="1" vertex="1">
          <mxGeometry x="259.33000000000004" y="390" width="259.53" height="10" as="geometry" />
        </mxCell>
        <mxCell id="kCvQ4fmgIMMC7hbJdR_D-45" value="" style="html=1;shadow=0;dashed=0;align=center;verticalAlign=middle;shape=mxgraph.arrows2.arrow;dy=0.66;dx=12.92;notch=0;rotation=25;fillColor=#e1d5e7;strokeColor=#9673a6;" parent="1" vertex="1">
          <mxGeometry x="256.45" y="310" width="260.19" height="10" as="geometry" />
        </mxCell>
        <mxCell id="kCvQ4fmgIMMC7hbJdR_D-46" value="" style="html=1;shadow=0;dashed=0;align=center;verticalAlign=middle;shape=mxgraph.arrows2.arrow;dy=0.66;dx=12.92;notch=0;rotation=25;fillColor=#dae8fc;strokeColor=#6c8ebf;" parent="1" vertex="1">
          <mxGeometry x="254" y="350" width="260.19" height="10" as="geometry" />
        </mxCell>
        <mxCell id="kCvQ4fmgIMMC7hbJdR_D-47" value="" style="html=1;shadow=0;dashed=0;align=center;verticalAlign=middle;shape=mxgraph.arrows2.arrow;dy=0.66;dx=12.92;notch=0;rotation=25;fillColor=#d5e8d4;strokeColor=#82b366;" parent="1" vertex="1">
          <mxGeometry x="257.11" y="390" width="260.19" height="10" as="geometry" />
        </mxCell>
        <mxCell id="kCvQ4fmgIMMC7hbJdR_D-48" value="" style="html=1;shadow=0;dashed=0;align=center;verticalAlign=middle;shape=mxgraph.arrows2.arrow;dy=0.66;dx=12.92;notch=0;rotation=25;fillColor=#ffe6cc;strokeColor=#d79b00;" parent="1" vertex="1">
          <mxGeometry x="260.2" y="270" width="260.19" height="10" as="geometry" />
        </mxCell>
        <mxCell id="WYsnVD36RjlEh3P3Hiub-1" value="3" style="ellipse;whiteSpace=wrap;html=1;aspect=fixed;fillColor=#f8cecc;strokeColor=#b85450;" parent="1" vertex="1">
          <mxGeometry x="669" y="245" width="20" height="20" as="geometry" />
        </mxCell>
        <mxCell id="WYsnVD36RjlEh3P3Hiub-2" value="4" style="ellipse;whiteSpace=wrap;html=1;aspect=fixed;fillColor=#e1d5e7;strokeColor=#9673a6;" parent="1" vertex="1">
          <mxGeometry x="669" y="125" width="20" height="20" as="geometry" />
        </mxCell>
        <mxCell id="WYsnVD36RjlEh3P3Hiub-3" value="2" style="ellipse;whiteSpace=wrap;html=1;aspect=fixed;fillColor=#ffe6cc;strokeColor=#d79b00;" parent="1" vertex="1">
          <mxGeometry x="80" y="205" width="20" height="20" as="geometry" />
        </mxCell>
        <mxCell id="WYsnVD36RjlEh3P3Hiub-4" value="4" style="ellipse;whiteSpace=wrap;html=1;aspect=fixed;fillColor=#e1d5e7;strokeColor=#9673a6;" parent="1" vertex="1">
          <mxGeometry x="80" y="245" width="20" height="20" as="geometry" />
        </mxCell>
        <mxCell id="WYsnVD36RjlEh3P3Hiub-5" value="6" style="ellipse;whiteSpace=wrap;html=1;aspect=fixed;fillColor=#dae8fc;strokeColor=#6c8ebf;" parent="1" vertex="1">
          <mxGeometry x="80" y="285" width="20" height="20" as="geometry" />
        </mxCell>
        <mxCell id="WYsnVD36RjlEh3P3Hiub-6" value="5" style="ellipse;whiteSpace=wrap;html=1;aspect=fixed;fillColor=#b1ddf0;strokeColor=#10739e;" parent="1" vertex="1">
          <mxGeometry x="669" y="285" width="20" height="20" as="geometry" />
        </mxCell>
      </root>
    </mxGraphModel>
  </diagram>
</mxfile>
